<svg width="39" height="38" viewBox="0 0 39 38" fill="none" xmlns="http://www.w3.org/2000/svg">
<path d="M19.4993 3.16797C10.7593 3.16797 3.66602 10.2613 3.66602 19.0013C3.66602 27.7413 10.7593 34.8346 19.4993 34.8346C28.2393 34.8346 35.3327 27.7413 35.3327 19.0013C35.3327 10.2613 28.2393 3.16797 19.4993 3.16797ZM28.7618 22.3263C28.6985 22.4688 28.6193 22.5955 28.5085 22.7063L23.6952 27.5196C23.4577 27.7571 23.1568 27.868 22.856 27.868C22.5552 27.868 22.2543 27.7571 22.0168 27.5196C21.5577 27.0605 21.5577 26.3005 22.0168 25.8413L24.8035 23.0546H11.3452C10.696 23.0546 10.1577 22.5163 10.1577 21.8671C10.1577 21.218 10.696 20.6796 11.3452 20.6796H27.6693C27.8277 20.6796 27.9702 20.7113 28.1285 20.7746C28.4135 20.9013 28.651 21.123 28.7777 21.4238C28.8727 21.7088 28.8727 22.0413 28.7618 22.3263ZM27.6535 17.3071H11.3452C11.1868 17.3071 11.0285 17.2755 10.886 17.2121C10.601 17.0855 10.3635 16.8638 10.2368 16.563C10.1102 16.278 10.1102 15.9455 10.2368 15.6605C10.3002 15.518 10.3793 15.3913 10.4902 15.2805L15.3035 10.4671C15.7627 10.008 16.5227 10.008 16.9818 10.4671C17.441 10.9263 17.441 11.6863 16.9818 12.1455L14.211 14.9321H27.6693C28.3185 14.9321 28.8568 15.4705 28.8568 16.1196C28.8568 16.7688 28.3185 17.3071 27.6535 17.3071Z" fill="#003DF6"/>
</svg>
