<svg width="20" height="20" viewBox="0 0 20 20" fill="none" xmlns="http://www.w3.org/2000/svg">
<path fill-rule="evenodd" clip-rule="evenodd" d="M10.0003 2.29297C5.74313 2.29297 2.29199 5.74411 2.29199 10.0013C2.29199 14.2585 5.74313 17.7096 10.0003 17.7096C14.2575 17.7096 17.7087 14.2585 17.7087 10.0013C17.7087 5.74411 14.2575 2.29297 10.0003 2.29297ZM1.04199 10.0013C1.04199 5.05375 5.05277 1.04297 10.0003 1.04297C14.9479 1.04297 18.9587 5.05375 18.9587 10.0013C18.9587 14.9489 14.9479 18.9596 10.0003 18.9596C5.05277 18.9596 1.04199 14.9489 1.04199 10.0013ZM10.0003 4.3763C10.3455 4.3763 10.6253 4.65612 10.6253 5.0013V5.26525C11.984 5.50853 13.1253 6.52931 13.1253 7.91797C13.1253 8.26315 12.8455 8.54297 12.5003 8.54297C12.1551 8.54297 11.8753 8.26315 11.8753 7.91797C11.8753 7.21441 11.1474 6.45964 10.0003 6.45964C8.85325 6.45964 8.12533 7.21441 8.12533 7.91797C8.12533 8.62153 8.85325 9.3763 10.0003 9.3763C11.6147 9.3763 13.1253 10.487 13.1253 12.0846C13.1253 13.4733 11.984 14.4941 10.6253 14.7374V15.0013C10.6253 15.3465 10.3455 15.6263 10.0003 15.6263C9.65515 15.6263 9.37533 15.3465 9.37533 15.0013V14.7374C8.01663 14.4941 6.87533 13.4733 6.87533 12.0846C6.87533 11.7395 7.15515 11.4596 7.50033 11.4596C7.8455 11.4596 8.12533 11.7395 8.12533 12.0846C8.12533 12.7882 8.85325 13.543 10.0003 13.543C11.1474 13.543 11.8753 12.7882 11.8753 12.0846C11.8753 11.3811 11.1474 10.6263 10.0003 10.6263C8.38597 10.6263 6.87533 9.5156 6.87533 7.91797C6.87533 6.52931 8.01663 5.50853 9.37533 5.26525V5.0013C9.37533 4.65612 9.65515 4.3763 10.0003 4.3763Z" fill="white"/>
</svg>
