<svg width="20" height="20" viewBox="0 0 20 20" fill="none" xmlns="http://www.w3.org/2000/svg">
<path fill-rule="evenodd" clip-rule="evenodd" d="M17.292 5.83203C17.292 6.17721 17.0122 6.45703 16.667 6.45703L3.33366 6.45703C2.98848 6.45703 2.70866 6.17721 2.70866 5.83203C2.70866 5.48685 2.98848 5.20703 3.33366 5.20703L16.667 5.20703C17.0122 5.20703 17.292 5.48685 17.292 5.83203Z" fill="#010409"/>
<path fill-rule="evenodd" clip-rule="evenodd" d="M17.292 10C17.292 10.3452 17.0122 10.625 16.667 10.625L3.33366 10.625C2.98848 10.625 2.70866 10.3452 2.70866 10C2.70866 9.65482 2.98848 9.375 3.33366 9.375L16.667 9.375C17.0122 9.375 17.292 9.65482 17.292 10Z" fill="#010409"/>
<path fill-rule="evenodd" clip-rule="evenodd" d="M17.292 14.168C17.292 14.5131 17.0122 14.793 16.667 14.793L3.33366 14.793C2.98848 14.793 2.70866 14.5131 2.70866 14.168C2.70866 13.8228 2.98848 13.543 3.33366 13.543L16.667 13.543C17.0122 13.543 17.292 13.8228 17.292 14.168Z" fill="#010409"/>
</svg>
