<svg width="41" height="40" viewBox="0 0 41 40" fill="none" xmlns="http://www.w3.org/2000/svg">
<g clip-path="url(#clip0_7822_77)">
<path d="M40.3444 21.4998H33.1998C26.9589 21.4998 21.8998 26.559 21.8998 32.7998V39.9444C31.7497 39.214 39.614 31.3497 40.3444 21.4998Z" fill="white"/>
<path d="M18.8998 39.9444V32.7998C18.8998 26.559 13.8406 21.4998 7.59972 21.4998H0.455124C1.18546 31.3497 9.04982 39.214 18.8998 39.9444Z" fill="white"/>
<path d="M40.3444 18.4998C39.614 8.64987 31.7497 0.78551 21.8998 0.0551758V7.19977C21.8998 13.4406 26.9589 18.4998 33.1998 18.4998H40.3444Z" fill="white"/>
<path d="M18.8998 0.0551758C9.04982 0.78551 1.18546 8.64987 0.455124 18.4998H7.59972C13.8406 18.4998 18.8998 13.4406 18.8998 7.19977V0.0551758Z" fill="white"/>
<path d="M13.9825 19.9998C16.755 18.6145 19.0145 16.355 20.3997 13.5825C21.785 16.355 24.0444 18.6145 26.817 19.9998C24.0444 21.385 21.785 23.6445 20.3997 26.417C19.0145 23.6445 16.755 21.385 13.9825 19.9998Z" fill="white"/>
</g>
<defs>
<clipPath id="clip0_7822_77">
<rect width="40" height="40" fill="white" transform="translate(0.39946)"/>
</clipPath>
</defs>
</svg>
