<svg width="20" height="20" viewBox="0 0 20 20" fill="none" xmlns="http://www.w3.org/2000/svg">
<path d="M7.91699 11.4575C7.91699 12.2659 8.542 12.9159 9.30867 12.9159H10.8753C11.542 12.9159 12.0837 12.3492 12.0837 11.6409C12.0837 10.8825 11.7503 10.6076 11.2587 10.4326L8.75033 9.55755C8.25866 9.38255 7.92533 9.11588 7.92533 8.34922C7.92533 7.64922 8.46699 7.07422 9.13365 7.07422H10.7003C11.467 7.07422 12.092 7.72422 12.092 8.53255" stroke="white" stroke-width="1.5" stroke-linecap="round" stroke-linejoin="round"/>
<path d="M10 6.25V13.75" stroke="white" stroke-width="1.5" stroke-linecap="round" stroke-linejoin="round"/>
<path d="M18.3337 10.0013C18.3337 14.6013 14.6003 18.3346 10.0003 18.3346C5.40033 18.3346 1.66699 14.6013 1.66699 10.0013C1.66699 5.4013 5.40033 1.66797 10.0003 1.66797" stroke="white" stroke-width="1.5" stroke-linecap="round" stroke-linejoin="round"/>
<path d="M18.6076 3.16016L16.2506 0.803133L13.8936 3.16016" stroke="white" stroke-width="1.5" stroke-linecap="round" stroke-linejoin="round"/>
<path d="M16.25 6.69237V0.799815" stroke="white" stroke-width="1.5" stroke-linecap="round" stroke-linejoin="round"/>
</svg>
