<svg width="20" height="20" viewBox="0 0 20 20" fill="none" xmlns="http://www.w3.org/2000/svg">
<path d="M7.47591 18.3346H12.4759C16.6426 18.3346 18.3092 16.668 18.3092 12.5013V7.5013C18.3092 3.33464 16.6426 1.66797 12.4759 1.66797H7.47591C3.30924 1.66797 1.64258 3.33464 1.64258 7.5013V12.5013C1.64258 16.668 3.30924 18.3346 7.47591 18.3346Z" stroke="white" stroke-width="1.5" stroke-linecap="round" stroke-linejoin="round"/>
<path d="M1.64258 10.5821L6.64258 10.5655C7.26758 10.5655 7.96758 11.0405 8.20091 11.6238L9.15091 14.0238C9.36758 14.5655 9.70924 14.5655 9.92591 14.0238L11.8342 9.18212C12.0176 8.71546 12.3592 8.69879 12.5926 9.14046L13.4592 10.7821C13.7176 11.2738 14.3842 11.6738 14.9342 11.6738H18.3176" stroke="white" stroke-width="1.5" stroke-linecap="round" stroke-linejoin="round"/>
</svg>
